<svg xmlns="http://www.w3.org/2000/svg" viewBox="0 0 1024 1024" fill="none">
  <defs>
    <linearGradient id="shell" x1="148" x2="892" y1="112" y2="908" gradientUnits="userSpaceOnUse">
      <stop stop-color="#262626"/>
      <stop offset="1" stop-color="#171717"/>
    </linearGradient>
  </defs>

  <rect x="64" y="64" width="896" height="896" rx="220" fill="url(#shell)"/>
  <rect x="64" y="64" width="896" height="896" rx="220" stroke="#3A3A3A" stroke-width="8"/>

  <rect x="148" y="148" width="340" height="728" rx="108" fill="#24181B"/>
  <rect x="148" y="148" width="340" height="728" rx="108" stroke="#5C2B33" stroke-width="10"/>
  <rect x="536" y="148" width="340" height="728" rx="108" fill="#15231A"/>
  <rect x="536" y="148" width="340" height="728" rx="108" stroke="#2C6A36" stroke-width="10"/>

  <rect x="472" y="164" width="80" height="696" rx="40" fill="#F5F7FA" fill-opacity=".14"/>
  <rect x="500" y="212" width="24" height="600" rx="12" fill="#F5F7FA" fill-opacity=".78"/>

  <rect x="222" y="262" width="192" height="34" rx="17" fill="#FFD8D8" fill-opacity=".22"/>
  <rect x="610" y="262" width="192" height="34" rx="17" fill="#D9FFE1" fill-opacity=".22"/>

  <rect x="218" y="454" width="200" height="92" rx="46" fill="#FF6B6B"/>

  <rect x="606" y="462" width="200" height="76" rx="38" fill="#3FB950"/>
  <rect x="668" y="400" width="76" height="200" rx="38" fill="#3FB950"/>

  <rect x="222" y="654" width="164" height="28" rx="14" fill="#FFD8D8" fill-opacity=".16"/>
  <rect x="638" y="654" width="164" height="28" rx="14" fill="#D9FFE1" fill-opacity=".16"/>
</svg>
